<?xml version="1.0" encoding="utf-8"?>
<!-- Generator: Adobe Illustrator 27.5.0, SVG Export Plug-In . SVG Version: 6.00 Build 0)  -->
<svg version="1.1" id="Layer_1" xmlns="http://www.w3.org/2000/svg" xmlns:xlink="http://www.w3.org/1999/xlink" x="0px" y="0px"
	 viewBox="0 0 2372 1898" style="enable-background:new 0 0 2372 1898;" xml:space="preserve">
<g>
	<rect y="0" style="fill:#FFFFFF;" width="2371.708" height="1897.367"/>
	<g>
		<path style="fill:#1D3B63;" d="M505.29,1535.299c-4.909-2.67-8.763-6.363-11.542-11.072c-2.792-4.71-4.181-10.024-4.181-15.942
			c0-5.919,1.402-11.233,4.22-15.943c2.818-4.709,6.678-8.402,11.593-11.072c4.909-2.677,10.41-4.008,16.503-4.008
			c4.935,0,9.451,0.862,13.53,2.586c4.079,1.724,7.521,4.221,10.339,7.495l-7.238,6.807c-4.368-4.709-9.74-7.064-16.116-7.064
			c-4.137,0-7.843,0.901-11.117,2.715c-3.275,1.808-5.829,4.323-7.669,7.54c-1.84,3.217-2.76,6.865-2.76,10.944
			c0,4.078,0.92,7.726,2.76,10.943c1.84,3.217,4.394,5.732,7.669,7.54c3.274,1.808,6.98,2.715,11.117,2.715
			c6.375,0,11.748-2.387,16.116-7.154l7.238,6.897c-2.818,3.274-6.279,5.771-10.384,7.495c-4.111,1.724-8.634,2.586-13.575,2.586
			C515.706,1539.307,510.205,1537.969,505.29,1535.299z"/>
		<path style="fill:#1D3B63;" d="M662.342,1538.445l-12.32-17.667c-0.521,0.058-1.293,0.084-2.329,0.084h-13.614v17.583h-11.208
			v-60.322h24.821c5.224,0,9.779,0.862,13.659,2.586c3.879,1.724,6.852,4.195,8.917,7.412c2.071,3.217,3.107,7.032,3.107,11.459
			c0,4.535-1.106,8.447-3.32,11.722c-2.213,3.274-5.384,5.713-9.522,7.321l13.871,19.822H662.342z M658.295,1490.701
			c-2.535-2.065-6.241-3.101-11.117-3.101h-13.099v24.043h13.099c4.877,0,8.582-1.049,11.117-3.146
			c2.522-2.098,3.789-5.069,3.789-8.917C662.085,1495.732,660.817,1492.773,658.295,1490.701z"/>
		<path style="fill:#1D3B63;" d="M797.462,1529.052v9.393H752.22v-60.322h44.039v9.393h-32.838v15.685h29.132v9.219h-29.132v16.631
			H797.462z"/>
		<path style="fill:#1D3B63;" d="M876.307,1478.123h26.371c6.434,0,12.153,1.248,17.152,3.745
			c4.999,2.503,8.872,6.035,11.633,10.603c2.76,4.568,4.137,9.837,4.137,15.814c0,5.977-1.377,11.246-4.137,15.813
			c-2.76,4.568-6.633,8.1-11.633,10.596c-4.999,2.503-10.718,3.751-17.152,3.751h-26.371V1478.123z M902.164,1528.962
			c4.42,0,8.312-0.843,11.677-2.541c3.359-1.693,5.945-4.105,7.753-7.238c1.808-3.127,2.715-6.762,2.715-10.898
			c0-4.137-0.907-7.772-2.715-10.905c-1.808-3.127-4.394-5.539-7.753-7.238c-3.365-1.692-7.257-2.541-11.677-2.541h-14.649v41.362
			H902.164z"/>
		<path style="fill:#1D3B63;" d="M1013.845,1478.123h11.201v60.322h-11.201V1478.123z"/>
		<path style="fill:#1D3B63;" d="M1119.924,1487.6h-19.996v-9.477h51.187v9.477h-19.99v50.846h-11.201V1487.6z"/>
		<path style="fill:#1D3B63;" d="M1321.349,1538.143c-4.735-1.119-8.634-2.631-11.677-4.523l6.549-14.823
			c2.876,1.666,6.093,3.004,9.657,4.008c3.558,1.003,6.974,1.505,10.256,1.505c2.811,0,4.825-0.27,6.028-0.818
			c1.203-0.547,1.808-1.364,1.808-2.457c0-1.261-0.785-2.213-2.368-2.843c-1.582-0.63-4.181-1.319-7.798-2.065
			c-4.658-0.978-8.531-2.026-11.632-3.146c-3.108-1.119-5.803-2.959-8.107-5.513c-2.297-2.56-3.442-6.021-3.442-10.384
			c0-3.796,1.061-7.244,3.185-10.346c2.123-3.101,5.301-5.539,9.522-7.321c4.227-1.782,9.354-2.67,15.383-2.67
			c4.137,0,8.203,0.444,12.191,1.332c3.996,0.894,7.515,2.2,10.558,3.924l-6.118,14.733c-5.919-2.985-11.517-4.484-16.805-4.484
			c-5.224,0-7.836,1.267-7.836,3.795c0,1.204,0.772,2.11,2.323,2.715c1.55,0.599,4.111,1.249,7.668,1.937
			c4.601,0.862,8.474,1.853,11.639,2.973c3.153,1.119,5.9,2.946,8.229,5.475c2.322,2.528,3.487,5.977,3.487,10.339
			c0,3.789-1.062,7.224-3.185,10.3c-2.13,3.069-5.301,5.514-9.522,7.322c-4.228,1.808-9.355,2.715-15.39,2.715
			C1330.961,1539.822,1326.091,1539.262,1321.349,1538.143z"/>
		<path style="fill:#1D3B63;" d="M1450.396,1535.814c-5.115-2.67-9.123-6.402-12.018-11.201c-2.908-4.794-4.355-10.243-4.355-16.328
			c0-6.093,1.447-11.536,4.355-16.329c2.895-4.799,6.903-8.531,12.018-11.207c5.115-2.67,10.86-4.002,17.236-4.002
			c5.861,0,11.085,1.03,15.686,3.101c4.593,2.065,8.383,5.057,11.374,8.962l-12.842,11.459c-3.738-4.71-8.132-7.064-13.183-7.064
			c-4.253,0-7.669,1.364-10.255,4.092c-2.587,2.727-3.88,6.388-3.88,10.989c0,4.593,1.293,8.261,3.88,10.988
			c2.586,2.728,6.002,4.092,10.255,4.092c5.05,0,9.445-2.355,13.183-7.07l12.842,11.465c-2.992,3.905-6.781,6.891-11.374,8.962
			c-4.601,2.065-9.824,3.101-15.686,3.101C1461.256,1539.822,1455.511,1538.484,1450.396,1535.814z"/>
		<path style="fill:#1D3B63;" d="M1579.738,1535.775c-5.166-2.702-9.213-6.453-12.146-11.246c-2.928-4.8-4.394-10.217-4.394-16.245
			c0-6.035,1.466-11.446,4.394-16.246c2.934-4.793,6.98-8.543,12.146-11.246c5.173-2.703,11.001-4.047,17.5-4.047
			c6.485,0,12.32,1.345,17.493,4.047c5.166,2.702,9.22,6.453,12.147,11.246c2.934,4.8,4.394,10.21,4.394,16.246
			c0,6.028-1.46,11.445-4.394,16.245c-2.927,4.793-6.981,8.544-12.147,11.246c-5.172,2.696-11.008,4.047-17.493,4.047
			C1590.74,1539.822,1584.911,1538.471,1579.738,1535.775z M1604.083,1521.512c2.04-1.235,3.668-2.986,4.871-5.257
			c1.21-2.271,1.808-4.928,1.808-7.971c0-3.044-0.598-5.701-1.808-7.972c-1.203-2.271-2.831-4.021-4.871-5.257
			c-2.033-1.235-4.323-1.852-6.845-1.852c-2.535,0-4.813,0.617-6.852,1.852c-2.039,1.235-3.66,2.986-4.87,5.257
			c-1.209,2.271-1.808,4.928-1.808,7.972c0,3.043,0.598,5.7,1.808,7.971c1.21,2.271,2.831,4.021,4.87,5.257
			c2.04,1.235,4.317,1.853,6.852,1.853C1599.76,1523.365,1602.05,1522.747,1604.083,1521.512z"/>
		<path style="fill:#1D3B63;" d="M1730.891,1523.274h-5.514v15.171h-20.337v-60.322h29.042c5.572,0,10.422,0.92,14.559,2.754
			c4.137,1.84,7.328,4.484,9.567,7.933c2.239,3.442,3.358,7.469,3.358,12.063c0,4.31-0.978,8.074-2.927,11.291
			c-1.956,3.217-4.767,5.771-8.447,7.669l12.667,18.613h-21.714L1730.891,1523.274z M1738.991,1495.661
			c-1.377-1.235-3.449-1.853-6.202-1.853h-7.411v14.128h7.411c2.753,0,4.825-0.617,6.202-1.853c1.377-1.235,2.065-2.973,2.065-5.211
			C1741.056,1498.634,1740.368,1496.896,1738.991,1495.661z"/>
		<path style="fill:#1D3B63;" d="M1885.749,1523.108v15.338h-50.156v-60.322h49.031v15.338h-29.035v7.064h25.503v14.65h-25.503
			v7.933H1885.749z"/>
	</g>
	
		<radialGradient id="SVGID_1_" cx="-667.8649" cy="2963.1255" r="350.3032" gradientTransform="matrix(3.2097 0 0 0.3831 3335.3562 200.9868)" gradientUnits="userSpaceOnUse">
		<stop  offset="0.199" style="stop-color:#BABABA"/>
		<stop  offset="0.2652" style="stop-color:#C6C6C6"/>
		<stop  offset="0.4311" style="stop-color:#DFDFDF"/>
		<stop  offset="0.6044" style="stop-color:#F1F1F1"/>
		<stop  offset="0.7881" style="stop-color:#FCFCFC"/>
		<stop  offset="1" style="stop-color:#FFFFFF"/>
	</radialGradient>
	<ellipse style="opacity:0.3;fill:url(#SVGID_1_);" cx="1191.71" cy="1336.16" rx="1124.366" ry="134.201"/>
	<g>
		<g style="opacity:0.2;">
			
				<linearGradient id="SVGID_00000072970831892117609080000015761467181568188080_" gradientUnits="userSpaceOnUse" x1="1643.4647" y1="1184.1224" x2="1643.4647" y2="1043.6161">
				<stop  offset="0" style="stop-color:#00963A"/>
				<stop  offset="0.1576" style="stop-color:#06A541"/>
				<stop  offset="0.4706" style="stop-color:#0FBD4B"/>
				<stop  offset="0.7597" style="stop-color:#14CC52"/>
				<stop  offset="1" style="stop-color:#16D154"/>
			</linearGradient>
			<path style="fill:url(#SVGID_00000072970831892117609080000015761467181568188080_);" d="M1710.979,640.539l-177.941,177.942
				l-177.941,177.941c45.608,45.496,73.692,108.293,73.692,177.829h251.522h251.522
				C1931.833,965.642,1847.469,777.028,1710.979,640.539z"/>
			
				<linearGradient id="SVGID_00000003824523024418392670000002676754645470304136_" gradientUnits="userSpaceOnUse" x1="1510.2815" y1="846.4147" x2="1387.6508" y2="726.2869">
				<stop  offset="0" style="stop-color:#FFAC05"/>
				<stop  offset="0.1821" style="stop-color:#FFBE10"/>
				<stop  offset="0.494" style="stop-color:#FFD820"/>
				<stop  offset="0.776" style="stop-color:#FFE82A"/>
				<stop  offset="1" style="stop-color:#FFED2D"/>
			</linearGradient>
			<path style="fill:url(#SVGID_00000003824523024418392670000002676754645470304136_);" d="M1177.267,419.685v251.522V922.73
				c69.537,0,132.333,28.084,177.83,73.693l177.941-177.941l177.941-177.942C1574.491,504.05,1385.876,419.685,1177.267,419.685z"/>
			
				<linearGradient id="SVGID_00000031193004275860916170000004228642829148962966_" gradientUnits="userSpaceOnUse" x1="1174.5116" y1="708.0538" x2="986.7455" y2="708.0538">
				<stop  offset="0" style="stop-color:#FF4D05"/>
				<stop  offset="0.2771" style="stop-color:#FF6E16"/>
				<stop  offset="0.5535" style="stop-color:#FF8822"/>
				<stop  offset="0.8024" style="stop-color:#FF982A"/>
				<stop  offset="1" style="stop-color:#FF9D2D"/>
			</linearGradient>
			<path style="fill:url(#SVGID_00000031193004275860916170000004228642829148962966_);" d="M643.555,640.539l177.941,177.942
				l177.83,177.941h0.112c45.496-45.609,108.293-73.693,177.829-73.693V671.207V419.685
				C968.658,419.685,780.044,504.05,643.555,640.539z"/>
			
				<linearGradient id="SVGID_00000112626093801223467500000010381232287449371298_" gradientUnits="userSpaceOnUse" x1="843.1083" y1="838.9923" x2="758.0176" y2="936.5962">
				<stop  offset="0" style="stop-color:#FF0508"/>
				<stop  offset="0.0461" style="stop-color:#FF0C0B"/>
				<stop  offset="0.3221" style="stop-color:#FF2F1A"/>
				<stop  offset="0.5813" style="stop-color:#FF4924"/>
				<stop  offset="0.8147" style="stop-color:#FF592B"/>
				<stop  offset="1" style="stop-color:#FF5E2D"/>
			</linearGradient>
			<path style="fill:url(#SVGID_00000112626093801223467500000010381232287449371298_);" d="M821.496,818.481L643.555,640.539
				c-136.489,136.489-220.854,325.103-220.854,533.713h251.522h251.522c0-69.537,28.084-132.333,73.581-177.829L821.496,818.481z"/>
		</g>
		<g>
			
				<linearGradient id="SVGID_00000134969811464209516370000003184413798649340066_" gradientUnits="userSpaceOnUse" x1="1540.8914" y1="1181.9507" x2="1540.8914" y2="1072.3586">
				<stop  offset="0" style="stop-color:#00963A"/>
				<stop  offset="0.1576" style="stop-color:#06A541"/>
				<stop  offset="0.4706" style="stop-color:#0FBD4B"/>
				<stop  offset="0.7597" style="stop-color:#14CC52"/>
				<stop  offset="1" style="stop-color:#16D154"/>
			</linearGradient>
			<path style="fill:url(#SVGID_00000134969811464209516370000003184413798649340066_);" d="M1593.551,757.967l-138.79,138.791
				l-138.79,138.79c35.574,35.486,57.479,84.466,57.479,138.703h196.182h196.182
				C1765.813,1011.541,1700.011,864.426,1593.551,757.967z"/>
			
				<linearGradient id="SVGID_00000080201663523742352220000016074930291163295618_" gradientUnits="userSpaceOnUse" x1="1437.0111" y1="918.5458" x2="1341.3618" y2="824.8486">
				<stop  offset="0" style="stop-color:#FFAC05"/>
				<stop  offset="0.1821" style="stop-color:#FFBE10"/>
				<stop  offset="0.494" style="stop-color:#FFD820"/>
				<stop  offset="0.776" style="stop-color:#FFE82A"/>
				<stop  offset="1" style="stop-color:#FFED2D"/>
			</linearGradient>
			<path style="fill:url(#SVGID_00000080201663523742352220000016074930291163295618_);" d="M1177.267,585.706v196.182V978.07
				c54.238,0,103.217,21.905,138.703,57.478l138.79-138.79l138.79-138.791C1487.093,651.508,1339.978,585.706,1177.267,585.706z"/>
			
				<linearGradient id="SVGID_00000155866072604456623510000016088299784286519982_" gradientUnits="userSpaceOnUse" x1="1175.1178" y1="810.6271" x2="1028.6639" y2="810.6271">
				<stop  offset="0" style="stop-color:#FF4D05"/>
				<stop  offset="0.2771" style="stop-color:#FF6E16"/>
				<stop  offset="0.5535" style="stop-color:#FF8822"/>
				<stop  offset="0.8024" style="stop-color:#FF982A"/>
				<stop  offset="1" style="stop-color:#FF9D2D"/>
			</linearGradient>
			<path style="fill:url(#SVGID_00000155866072604456623510000016088299784286519982_);" d="M760.982,757.967l138.79,138.791
				l138.703,138.79h0.088c35.486-35.574,84.466-57.478,138.703-57.478V781.888V585.706
				C1014.556,585.706,867.441,651.508,760.982,757.967z"/>
			
				<linearGradient id="SVGID_00000100348288998645536980000017063155300265503408_" gradientUnits="userSpaceOnUse" x1="916.6298" y1="912.7564" x2="850.2609" y2="988.8854">
				<stop  offset="0" style="stop-color:#FF0508"/>
				<stop  offset="0.0461" style="stop-color:#FF0C0B"/>
				<stop  offset="0.3221" style="stop-color:#FF2F1A"/>
				<stop  offset="0.5813" style="stop-color:#FF4924"/>
				<stop  offset="0.8147" style="stop-color:#FF592B"/>
				<stop  offset="1" style="stop-color:#FF5E2D"/>
			</linearGradient>
			<path style="fill:url(#SVGID_00000100348288998645536980000017063155300265503408_);" d="M899.773,896.758l-138.79-138.791
				c-106.459,106.459-172.261,253.574-172.261,416.285h196.182h196.182c0-54.237,21.905-103.217,57.391-138.703L899.773,896.758z"/>
		</g>
		<g>
			<g>
				<path style="fill:#1D3B63;" d="M1704.796,779.677l-5.391,4.23l-17.628-22.476l29.023-22.772l17.21,21.938l-5.392,4.227
					l-11.967-15.261l-6.305,4.948l10.571,13.475l-5.224,4.098l-10.571-13.475l-6.723,5.269L1704.796,779.677z"/>
				<path style="fill:#1D3B63;" d="M1720.925,814.709l5.572-14.572l-15.512-0.023l-5.514-8.103l23.193,0.724l7.688-20.919
					l5.462,8.016l-5.122,13.745l14.579,0.151l5.192,7.624l-21.965-0.605l-8.029,22.106L1720.925,814.709z"/>
				<path style="fill:#1D3B63;" d="M1737.595,837.777c-0.123-3.449,0.63-6.656,2.252-9.619c1.621-2.966,4.014-5.372,7.167-7.215
					c3.153-1.843,6.421-2.747,9.805-2.708c3.378,0.038,6.543,0.955,9.484,2.753c2.946,1.798,5.379,4.336,7.296,7.615
					c1.608,2.76,2.587,5.539,2.921,8.335c0.328,2.799,0.026,5.485-0.901,8.068l-7.141-2.177c1.229-3.61,0.913-7.006-0.946-10.191
					c-1.151-1.972-2.619-3.477-4.381-4.519c-1.776-1.042-3.68-1.541-5.739-1.503c-2.046,0.042-4.06,0.637-6.035,1.792
					c-1.969,1.152-3.475,2.612-4.517,4.382c-1.042,1.769-1.544,3.679-1.505,5.732c0.039,2.052,0.637,4.063,1.789,6.035
					c1.866,3.185,4.683,5.118,8.46,5.8l-1.602,7.286c-2.734-0.434-5.244-1.49-7.528-3.168c-2.284-1.676-4.233-3.896-5.848-6.656
					C1738.727,844.57,1737.717,841.225,1737.595,837.777z"/>
				<path style="fill:#1D3B63;" d="M1773.977,895.204l-6.137,3.043l-12.687-25.597l33.056-16.38l12.385,24.979l-6.145,3.043
					l-8.608-17.377l-7.18,3.558l7.605,15.348l-5.952,2.949l-7.605-15.347l-7.649,3.789L1773.977,895.204z"/>
				<path style="fill:#1D3B63;" d="M1807.889,897.481l3.294,7.878l-27.62,11.545l7.135,17.068l-6.421,2.683l-10.422-24.944
					L1807.889,897.481z"/>
				<path style="fill:#1D3B63;" d="M1823.478,936.254l2.805,8.065l-28.276,9.837l6.079,17.471l-6.568,2.287l-8.885-25.538
					L1823.478,936.254z"/>
				<path style="fill:#1D3B63;" d="M1815.487,1011.801l-6.601,1.833l-7.636-27.53l35.553-9.86l7.45,26.867l-6.601,1.834
					l-5.186-18.69l-7.714,2.139l4.575,16.506l-6.395,1.775l-4.581-16.506l-8.229,2.281L1815.487,1011.801z"/>
				<path style="fill:#1D3B63;" d="M1855.164,1053.665l-36.17,7.27l-1.383-6.871l18.336-22.448l-21.958,4.414l-1.667-8.267
					l36.171-7.27l1.396,6.922l-18.349,22.396l21.965-4.413L1855.164,1053.665z"/>
				<path style="fill:#1D3B63;" d="M1852.192,1081.095l-1.519-11.71l6.904-0.891l4.123,31.882l-6.903,0.895l-1.512-11.71
					l-29.691,3.839l-1.094-8.467L1852.192,1081.095z"/>
			</g>
			<g>
				<path style="fill:#1D3B63;" d="M1363.438,529.556l7.521,2.055l-3.944,14.44c-2.33,0.93-4.877,1.435-7.63,1.519
					c-2.754,0.087-5.417-0.225-7.997-0.926c-3.693-1.011-6.8-2.709-9.316-5.089c-2.515-2.384-4.234-5.202-5.147-8.457
					c-0.914-3.252-0.888-6.643,0.071-10.169c0.965-3.525,2.67-6.456,5.108-8.794c2.445-2.335,5.372-3.886,8.788-4.645
					c3.41-0.762,6.981-0.634,10.712,0.386c3.12,0.853,5.803,2.152,8.061,3.899c2.252,1.743,3.969,3.854,5.153,6.325l-6.62,3.435
					c-1.814-3.371-4.516-5.548-8.106-6.53c-2.272-0.621-4.42-0.698-6.441-0.231c-2.02,0.469-3.764,1.431-5.218,2.891
					c-1.454,1.461-2.483,3.307-3.101,5.546c-0.598,2.204-0.643,4.301-0.135,6.299c0.509,1.997,1.505,3.718,2.992,5.16
					c1.48,1.444,3.339,2.47,5.572,3.082c2.374,0.65,4.645,0.723,6.827,0.228L1363.438,529.556z"/>
				<path style="fill:#1D3B63;" d="M1388.459,555.4c-2.336-2.593-3.834-5.546-4.49-8.863c-0.663-3.316-0.379-6.678,0.843-10.085
					c1.223-3.406,3.14-6.18,5.759-8.322c2.618-2.139,5.649-3.468,9.103-3.986c3.448-0.515,6.974-0.125,10.583,1.168
					c3.603,1.293,6.569,3.233,8.885,5.819c2.322,2.586,3.815,5.539,4.49,8.862c0.675,3.323,0.399,6.688-0.817,10.091
					c-1.223,3.407-3.152,6.18-5.784,8.312c-2.632,2.137-5.668,3.465-9.104,3.986c-3.429,0.524-6.954,0.138-10.557-1.155
					C1393.767,559.935,1390.794,557.992,1388.459,555.4z M1405.887,554.963c1.995-0.351,3.764-1.2,5.315-2.548
					c1.544-1.348,2.702-3.098,3.474-5.247c0.772-2.148,0.991-4.236,0.65-6.263c-0.335-2.024-1.165-3.806-2.477-5.34
					c-1.319-1.534-2.998-2.673-5.05-3.407c-2.052-0.737-4.073-0.93-6.06-0.579c-1.995,0.348-3.764,1.197-5.308,2.545
					c-1.551,1.351-2.708,3.098-3.48,5.249c-0.772,2.149-0.991,4.237-0.65,6.26c0.335,2.027,1.158,3.806,2.477,5.344
					c1.319,1.534,2.998,2.669,5.05,3.407C1401.873,555.117,1403.893,555.31,1405.887,554.963z"/>
				<path style="fill:#1D3B63;" d="M1437.432,574.338c-2.123-2.773-3.378-5.839-3.764-9.197c-0.385-3.355,0.167-6.685,1.66-9.982
					c1.493-3.294,3.629-5.906,6.408-7.826c2.785-1.924,5.912-3.001,9.399-3.237c3.48-0.238,6.968,0.435,10.455,2.017
					c3.487,1.579,6.28,3.754,8.39,6.52c2.097,2.767,3.352,5.829,3.757,9.197c0.399,3.365-0.142,6.694-1.635,9.992
					c-1.492,3.297-3.641,5.903-6.433,7.817c-2.799,1.917-5.932,2.994-9.393,3.236c-3.468,0.244-6.948-0.425-10.435-2.004
					C1442.354,579.288,1439.548,577.114,1437.432,574.338z M1454.841,575.312c2.014-0.186,3.841-0.891,5.495-2.11
					c1.654-1.216,2.953-2.866,3.892-4.948c0.939-2.081,1.325-4.143,1.158-6.189c-0.174-2.046-0.856-3.886-2.046-5.523
					c-1.184-1.637-2.767-2.905-4.755-3.805c-1.982-0.898-3.982-1.255-5.996-1.068c-2.013,0.186-3.847,0.891-5.494,2.11
					c-1.653,1.219-2.953,2.869-3.892,4.947c-0.945,2.082-1.325,4.143-1.158,6.19c0.174,2.046,0.856,3.886,2.04,5.523
					c1.191,1.637,2.773,2.908,4.755,3.805C1450.827,575.144,1452.827,575.498,1454.841,575.312z"/>
				<path style="fill:#1D3B63;" d="M1494.775,562.702l14.669,8.106c3.506,1.94,6.234,4.32,8.184,7.145
					c1.956,2.824,3.004,5.864,3.152,9.12c0.148,3.252-0.669,6.495-2.451,9.725c-1.782,3.226-4.098,5.645-6.929,7.25
					c-2.838,1.606-5.971,2.332-9.393,2.181c-3.436-0.148-6.904-1.194-10.41-3.13l-14.668-8.107L1494.775,562.702z M1494.621,596.762
					c3.229,1.782,6.305,2.306,9.219,1.57c2.915-0.737,5.224-2.641,6.923-5.716c1.698-3.075,2.085-6.045,1.158-8.904
					c-0.927-2.862-3.005-5.185-6.234-6.971l-6.826-3.773l-11.066,20.021L1494.621,596.762z"/>
			</g>
			<g>
				<path style="fill:#1D3B63;" d="M853.654,573.926l4.587,8.608l15.068-8.029l3.224,6.047l-15.074,8.03l6.318,11.86l-7.534,4.014
					l-17.345-32.563l24.609-13.106l3.223,6.048L853.654,573.926z"/>
				<path style="fill:#1D3B63;" d="M914.497,568.888l-15.621,7.029l0.27,8.551l-7.984,3.587l-0.135-40.391l7.688-3.458
					l30.181,26.877l-8.17,3.677L914.497,568.888z M909.389,564.078l-11.131-10.48l0.463,15.28L909.389,564.078z"/>
				<path style="fill:#1D3B63;" d="M926.811,532.512l7.978-3.056l13.196,34.453l-7.972,3.055L926.811,532.512z"/>
				<path style="fill:#1D3B63;" d="M986.09,550.893l-9.914-7.615l-0.406,0.128l-7.077,2.268l3.14,9.785l-8.132,2.606l-11.259-35.134
					l15.209-4.873c3.114-0.997,5.983-1.341,8.609-1.039c2.625,0.302,4.857,1.21,6.703,2.718c1.853,1.512,3.198,3.571,4.034,6.18
					c0.837,2.612,0.927,5.063,0.277,7.357c-0.643,2.29-1.962,4.31-3.95,6.054l11.497,8.766L986.09,550.893z M975.398,524.625
					c-1.608-0.647-3.629-0.576-6.074,0.206l-6.626,2.123l3.924,12.246l6.626-2.123c2.445-0.781,4.131-1.914,5.057-3.39
					c0.926-1.48,1.081-3.188,0.457-5.131C978.132,526.583,977.013,525.271,975.398,524.625z"/>
			</g>
			<g>
				<path style="fill:#1D3B63;" d="M518.299,980.289c1.692-2.03,3.68-3.4,5.958-4.121c2.278-0.717,4.735-0.708,7.373,0.022
					c2.612,0.724,4.71,1.982,6.311,3.774c1.602,1.795,2.593,3.995,2.986,6.598c0.392,2.609,0.148,5.485-0.727,8.634l-1.988,7.161
					l9.805,2.718l-2.284,8.228l-35.552-9.862l4.272-15.386C515.326,984.905,516.606,982.315,518.299,980.289z M533.334,987.71
					c-0.714-1.58-2.046-2.644-4.015-3.188c-1.994-0.557-3.706-0.338-5.128,0.653c-1.428,0.991-2.483,2.725-3.166,5.195l-1.859,6.704
					l12.34,3.422l1.859-6.704C534.055,991.323,534.042,989.296,533.334,987.71z"/>
				<path style="fill:#1D3B63;" d="M559.429,961.107c-2.593,2.332-5.552,3.822-8.872,4.471c-3.32,0.653-6.678,0.36-10.082-0.868
					c-3.403-1.229-6.17-3.156-8.306-5.778c-2.137-2.618-3.461-5.655-3.963-9.11c-0.514-3.452-0.116-6.978,1.184-10.581
					c1.306-3.602,3.255-6.559,5.842-8.875c2.593-2.313,5.552-3.802,8.879-4.468c3.32-0.669,6.684-0.386,10.088,0.843
					c3.403,1.229,6.17,3.166,8.3,5.8c2.129,2.637,3.448,5.674,3.963,9.113c0.515,3.435,0.122,6.954-1.184,10.554
					C563.978,955.812,562.028,958.778,559.429,961.107z M559.037,943.675c-0.348-1.991-1.197-3.764-2.535-5.314
					c-1.351-1.551-3.094-2.716-5.244-3.49c-2.142-0.775-4.233-0.997-6.26-0.666c-2.027,0.335-3.809,1.155-5.346,2.467
					c-1.538,1.313-2.677,2.992-3.417,5.041c-0.746,2.049-0.939,4.069-0.592,6.064c0.341,1.991,1.184,3.763,2.529,5.314
					c1.345,1.55,3.094,2.715,5.244,3.49c2.149,0.776,4.233,0.997,6.26,0.666c2.027-0.335,3.802-1.155,5.346-2.468
					c1.538-1.312,2.677-2.992,3.417-5.041C559.178,947.69,559.377,945.669,559.037,943.675z"/>
				<path style="fill:#1D3B63;" d="M578.376,912.414c-2.779,2.113-5.842,3.361-9.2,3.741c-3.358,0.383-6.691-0.177-9.985-1.675
					c-3.287-1.499-5.893-3.642-7.81-6.427c-1.917-2.783-2.992-5.916-3.224-9.4c-0.225-3.48,0.451-6.964,2.04-10.451
					c1.589-3.484,3.77-6.276,6.537-8.374c2.766-2.098,5.835-3.345,9.2-3.745c3.371-0.395,6.697,0.155,9.991,1.654
					c3.294,1.502,5.9,3.651,7.804,6.45c1.911,2.802,2.986,5.935,3.224,9.403c0.238,3.464-0.444,6.942-2.026,10.426
					C583.337,907.502,581.155,910.301,578.376,912.414z M579.386,895.008c-0.186-2.014-0.881-3.851-2.103-5.504
					c-1.21-1.653-2.857-2.953-4.941-3.899c-2.071-0.949-4.137-1.335-6.183-1.167c-2.046,0.167-3.892,0.846-5.526,2.03
					c-1.641,1.184-2.915,2.766-3.815,4.748c-0.907,1.985-1.268,3.983-1.081,5.997c0.186,2.013,0.881,3.847,2.098,5.5
					c1.216,1.654,2.862,2.953,4.941,3.902c2.078,0.946,4.143,1.335,6.189,1.165c2.046-0.167,3.886-0.843,5.527-2.027
					c1.641-1.183,2.908-2.766,3.815-4.751C579.206,899.019,579.566,897.022,579.386,895.008z"/>
				<path style="fill:#1D3B63;" d="M610.583,852.237l-12.436,1.274l-0.206,0.37l-3.584,6.511l9.007,4.957l-4.124,7.479
					l-32.316-17.799l7.708-13.987c1.569-2.863,3.422-5.086,5.533-6.668c2.117-1.583,4.362-2.461,6.749-2.635
					c2.381-0.171,4.768,0.402,7.174,1.724c2.399,1.322,4.15,3.04,5.25,5.153c1.106,2.11,1.538,4.481,1.287,7.116l14.386-1.528
					L610.583,852.237z M584.771,840.489c-1.615,0.637-3.036,2.078-4.278,4.323l-3.352,6.096l11.259,6.202l3.359-6.093
					c1.235-2.249,1.685-4.227,1.345-5.938c-0.341-1.712-1.403-3.06-3.185-4.044C588.097,840.035,586.386,839.855,584.771,840.489z"
					/>
			</g>
		</g>
		<path style="fill:#1D3B63;" d="M1161.117,1138.533l387.237-180.389c4.104-1.947,7.875,4.168,3.741,6.784
			c0.001,0-359.16,231.293-359.16,231.293C1152.755,1219.729,1119.657,1160.141,1161.117,1138.533L1161.117,1138.533z"/>
		<path style="fill:#1D3B63;" d="M1131.431,1091.808c41.744-25.143,95.986-11.745,121.165,29.998
			c9.076,15.07,13.129,31.719,12.645,48.101c-0.85,28.978-15.97,56.961-42.631,73.003c-41.718,25.217-95.973,11.795-121.153-29.949
			C1076.277,1171.242,1089.712,1117.025,1131.431,1091.808z"/>
		<path style="fill:#FFFFFF;" d="M1154.069,1129.332c21.012-12.656,48.315-5.912,60.989,15.1c4.568,7.585,6.609,15.965,6.365,24.212
			c-0.428,14.586-8.038,28.671-21.458,36.746c-21,12.693-48.308,5.937-60.983-15.075
			C1126.308,1169.315,1133.07,1142.025,1154.069,1129.332z"/>
	</g>
</g>
</svg>
